<svg xmlns="http://www.w3.org/2000/svg" viewBox="0 0 948.92 383.48"><defs><style>.cls-1{fill:#555;}</style></defs><title>instateacher-ver-grey</title><g id="Layer_2" data-name="Layer 2"><g id="Layer_1-2" data-name="Layer 1"><path class="cls-1" d="M455.18,214.38H443.33a11,11,0,0,0,0,22h11.85a11,11,0,0,0,0-22Z"/><path class="cls-1" d="M505.59,214.38H493.74a11,11,0,0,0,0,22h11.85a11,11,0,1,0,0-22Z"/><path class="cls-1" d="M589,86.68A62.84,62.84,0,0,0,538,25.06a93.12,93.12,0,0,0-127.11,0,62.7,62.7,0,0,0-26.38,111.36,93.19,93.19,0,0,0,179.86,0A62.66,62.66,0,0,0,589,86.68ZM503.53,28.19a63.05,63.05,0,0,0-29.07,23.05,63.05,63.05,0,0,0-29.07-23,71.36,71.36,0,0,1,58.14,0ZM422.71,45.93A40.75,40.75,0,1,1,382,86.68,40.8,40.8,0,0,1,422.71,45.93ZM474.46,183.2a71.7,71.7,0,0,1-60.91-34.45,62.46,62.46,0,0,0,48.35-13.12l12.56,21.68L487,135.63a62.46,62.46,0,0,0,48.35,13.12A71.7,71.7,0,0,1,474.46,183.2Zm51.75-55.77A40.75,40.75,0,1,1,567,86.68,40.8,40.8,0,0,1,526.21,127.43Z"/><path class="cls-1" d="M422.71,99.3a13.8,13.8,0,1,0-13.79-13.79A13.79,13.79,0,0,0,422.71,99.3Z"/><path class="cls-1" d="M526.21,71.71A13.8,13.8,0,1,0,540,85.51,13.79,13.79,0,0,0,526.21,71.71Z"/><path class="cls-1" d="M29.75,277.13a13.12,13.12,0,0,1-1.19,5.53,14.66,14.66,0,0,1-3.27,4.53,15.77,15.77,0,0,1-4.81,3.1,14.92,14.92,0,0,1-5.84,1.16A13.86,13.86,0,0,1,9,290.29a15.81,15.81,0,0,1-4.66-3.1,14.4,14.4,0,0,1-3.18-4.53A13.4,13.4,0,0,1,0,277.13a13.89,13.89,0,0,1,1.15-5.65,14.62,14.62,0,0,1,3.18-4.61A14.9,14.9,0,0,1,9,263.77a14.18,14.18,0,0,1,5.65-1.12,15.26,15.26,0,0,1,5.84,1.12,15,15,0,0,1,8.08,7.71A13.6,13.6,0,0,1,29.75,277.13Zm-2.87,22.59V382.2H2.23V299.72Z"/><path class="cls-1" d="M50.75,382.2V299.72H66a6.82,6.82,0,0,1,3.86,1,5.53,5.53,0,0,1,2.18,3.11l1.43,4.77a59.51,59.51,0,0,1,4.94-4.14,28.94,28.94,0,0,1,5.45-3.22,32.8,32.8,0,0,1,6.28-2.07,33.91,33.91,0,0,1,7.36-.75,29,29,0,0,1,12,2.34,24.92,24.92,0,0,1,8.79,6.53,28.16,28.16,0,0,1,5.41,9.94,41.2,41.2,0,0,1,1.83,12.53V382.2H100.86V329.79q0-6-2.79-9.43T89.88,317a17.15,17.15,0,0,0-7.64,1.75,30.11,30.11,0,0,0-6.84,4.69V382.2Z"/><path class="cls-1" d="M197.42,317.78a6.38,6.38,0,0,1-2,2.14,5.27,5.27,0,0,1-2.74.64,8.63,8.63,0,0,1-3.5-.76l-3.78-1.63a43.5,43.5,0,0,0-4.57-1.63,20.62,20.62,0,0,0-5.81-.75c-3.13,0-5.53.59-7.2,1.79a5.77,5.77,0,0,0-2.51,5,5,5,0,0,0,1.63,3.82,15.26,15.26,0,0,0,4.34,2.66,59.31,59.31,0,0,0,6.12,2.19c2.28.69,4.62,1.46,7,2.3a62.38,62.38,0,0,1,7,3,26.14,26.14,0,0,1,6.13,4.21,18.72,18.72,0,0,1,4.33,6.09,20.54,20.54,0,0,1,1.63,8.59,28.29,28.29,0,0,1-2.22,11.29,24,24,0,0,1-6.64,8.91,31.4,31.4,0,0,1-10.9,5.81,49.08,49.08,0,0,1-14.92,2.07,45.4,45.4,0,0,1-8.43-.8,57,57,0,0,1-8.15-2.15,43.9,43.9,0,0,1-7.28-3.22,31.58,31.58,0,0,1-5.73-4l5.73-9.07a8.22,8.22,0,0,1,2.47-2.51,6.84,6.84,0,0,1,3.74-.91,7.82,7.82,0,0,1,3.85.95l3.7,2.07a31.58,31.58,0,0,0,4.66,2.07,20.29,20.29,0,0,0,6.72,1,17.38,17.38,0,0,0,4.85-.59,8.65,8.65,0,0,0,3.18-1.63,6.42,6.42,0,0,0,2.31-4.94,5.36,5.36,0,0,0-1.67-4.05,14.74,14.74,0,0,0-4.38-2.75,54.74,54.74,0,0,0-6.16-2.14c-2.31-.67-4.66-1.42-7-2.27a57.21,57.21,0,0,1-7-3.06,24.49,24.49,0,0,1-6.17-4.54,21.06,21.06,0,0,1-4.37-6.72,27,27,0,0,1,.36-19.61,23.26,23.26,0,0,1,6.08-8.31,30.14,30.14,0,0,1,10.18-5.69,44.22,44.22,0,0,1,14.32-2.1,46,46,0,0,1,8.63.79,43.56,43.56,0,0,1,7.84,2.23,37.3,37.3,0,0,1,6.68,3.38,32.34,32.34,0,0,1,5.33,4.26Z"/><path class="cls-1" d="M249.91,383.48a29.11,29.11,0,0,1-10.38-1.71,20.12,20.12,0,0,1-12.21-12.45,29.44,29.44,0,0,1-1.59-9.94V316.74h-7a4.44,4.44,0,0,1-4.61-4.85v-9.63l13.12-2.54,4.86-20.12c.63-2.55,2.44-3.82,5.41-3.82h12.88v24.1h20.05v16.86H250.39v41a7.78,7.78,0,0,0,1.39,4.73,4.7,4.7,0,0,0,4,1.87,7.77,7.77,0,0,0,2.27-.28,9.22,9.22,0,0,0,1.59-.64c.45-.24.87-.45,1.27-.63a3.19,3.19,0,0,1,1.39-.28,2.84,2.84,0,0,1,1.79.52,6.07,6.07,0,0,1,1.39,1.63L273,376.32a34.27,34.27,0,0,1-10.74,5.37A42.71,42.71,0,0,1,249.91,383.48Z"/><path class="cls-1" d="M345.52,382.2a11.54,11.54,0,0,1-5.29-.95,7.33,7.33,0,0,1-3-4l-1.75-4.53q-3.11,2.63-6,4.61a37,37,0,0,1-5.93,3.38,29.19,29.19,0,0,1-6.52,2.07,40.26,40.26,0,0,1-7.68.68A33.37,33.37,0,0,1,299.15,382a21.14,21.14,0,0,1-7.83-4.35,19.07,19.07,0,0,1-5-7.14,26,26,0,0,1-1.75-9.86,20.77,20.77,0,0,1,2.23-9,22.18,22.18,0,0,1,7.72-8.42q5.49-3.8,14.79-6.35t23.47-2.55v-3.53q0-7.31-3-10.56c-2-2.17-4.81-3.25-8.47-3.25a22.72,22.72,0,0,0-7.16.95,33.41,33.41,0,0,0-5,2.15c-1.46.8-2.88,1.51-4.25,2.15a11.67,11.67,0,0,1-4.94.95,7.46,7.46,0,0,1-4.33-1.23,9.16,9.16,0,0,1-2.82-3.06l-4.46-7.72A50.19,50.19,0,0,1,305,301.35a58.06,58.06,0,0,1,19.52-3.22A35.9,35.9,0,0,1,338,300.55a29.15,29.15,0,0,1,10.18,6.77,29.49,29.49,0,0,1,6.4,10.3,36.84,36.84,0,0,1,2.23,13V382.2Zm-28.31-15a19.63,19.63,0,0,0,8.35-1.67,25.34,25.34,0,0,0,7.24-5.41V348.8a63.5,63.5,0,0,0-12.17,1,29,29,0,0,0-7.56,2.41,9.16,9.16,0,0,0-3.86,3.29,7.87,7.87,0,0,0-1.07,4c0,2.83.77,4.83,2.31,6S314.24,367.17,317.21,367.17Z"/><path class="cls-1" d="M407.25,383.48a29,29,0,0,1-10.38-1.71,20.05,20.05,0,0,1-12.21-12.45,29.2,29.2,0,0,1-1.59-9.94V316.74h-7a4.44,4.44,0,0,1-4.62-4.85v-9.63l13.13-2.54,4.85-20.12c.63-2.55,2.44-3.82,5.41-3.82h12.88v24.1h20v16.86h-20v41a7.78,7.78,0,0,0,1.39,4.73,4.7,4.7,0,0,0,4,1.87,7.77,7.77,0,0,0,2.27-.28,9.22,9.22,0,0,0,1.59-.64c.45-.24.87-.45,1.27-.63a3.19,3.19,0,0,1,1.39-.28,2.82,2.82,0,0,1,1.79.52,6.26,6.26,0,0,1,1.4,1.63l7.47,11.69a34.27,34.27,0,0,1-10.74,5.37A42.7,42.7,0,0,1,407.25,383.48Z"/><path class="cls-1" d="M481.22,298.45a42.6,42.6,0,0,1,15,2.54,32.76,32.76,0,0,1,11.7,7.4,33.75,33.75,0,0,1,7.63,11.89,43.62,43.62,0,0,1,2.75,16,34.44,34.44,0,0,1-.24,4.53,7.11,7.11,0,0,1-.88,2.79,3.31,3.31,0,0,1-1.71,1.43,7.85,7.85,0,0,1-2.74.4H465.15q1.2,10.33,6.29,15T484.56,365a23.52,23.52,0,0,0,7.4-1,37.73,37.73,0,0,0,5.53-2.31c1.61-.85,3.1-1.61,4.45-2.3a9.23,9.23,0,0,1,4.25-1,5.11,5.11,0,0,1,4.46,2.15l7.16,8.83a36.74,36.74,0,0,1-8.23,7.12,42.76,42.76,0,0,1-9.07,4.29,48.91,48.91,0,0,1-9.31,2.15,69.44,69.44,0,0,1-8.87.6,46.09,46.09,0,0,1-16.26-2.83,37.33,37.33,0,0,1-13.29-8.39,39.55,39.55,0,0,1-9-13.84,51.71,51.71,0,0,1-3.3-19.25,43.42,43.42,0,0,1,2.83-15.67,38.05,38.05,0,0,1,20.92-21.79A42.15,42.15,0,0,1,481.22,298.45Zm.48,17q-7.08,0-11.06,4t-5.25,11.57h30.78a22,22,0,0,0-.75-5.73,14.05,14.05,0,0,0-2.47-5,12.55,12.55,0,0,0-4.49-3.54A15.4,15.4,0,0,0,481.7,315.47Z"/><path class="cls-1" d="M593.37,382.2a11.51,11.51,0,0,1-5.29-.95,7.28,7.28,0,0,1-3-4l-1.75-4.53q-3.11,2.63-6,4.61a36.91,36.91,0,0,1-5.92,3.38,29.11,29.11,0,0,1-6.53,2.07,40.08,40.08,0,0,1-7.67.68A33.32,33.32,0,0,1,547,382a21.27,21.27,0,0,1-7.84-4.35,19.17,19.17,0,0,1-5-7.14,26,26,0,0,1-1.75-9.86,20.63,20.63,0,0,1,2.23-9,22.23,22.23,0,0,1,7.71-8.42q5.49-3.8,14.8-6.35t23.47-2.55v-3.53q0-7.31-3-10.56T569.19,317a22.68,22.68,0,0,0-7.16.95,33,33,0,0,0-5,2.15c-1.46.8-2.88,1.51-4.26,2.15a11.6,11.6,0,0,1-4.93.95,7.46,7.46,0,0,1-4.33-1.23,9.19,9.19,0,0,1-2.83-3.06l-4.45-7.72a50.15,50.15,0,0,1,16.58-9.82,58.12,58.12,0,0,1,19.53-3.22,35.9,35.9,0,0,1,13.49,2.42A29.15,29.15,0,0,1,596,307.32a29.64,29.64,0,0,1,6.4,10.3,37.07,37.07,0,0,1,2.23,13V382.2Zm-28.32-15a19.64,19.64,0,0,0,8.36-1.67,25.47,25.47,0,0,0,7.24-5.41V348.8a63.43,63.43,0,0,0-12.17,1,28.87,28.87,0,0,0-7.56,2.41,9.16,9.16,0,0,0-3.86,3.29,7.77,7.77,0,0,0-1.07,4c0,2.83.76,4.83,2.3,6S562.08,367.17,565.05,367.17Z"/><path class="cls-1" d="M685.64,319.29a13.08,13.08,0,0,1-2.15,2.14,4.68,4.68,0,0,1-2.94.8,6.27,6.27,0,0,1-3.3-.88l-3.3-1.94a24.68,24.68,0,0,0-4.3-2,18.3,18.3,0,0,0-6.12-.88,17.21,17.21,0,0,0-7.84,1.67,14.56,14.56,0,0,0-5.45,4.78,21.8,21.8,0,0,0-3.18,7.59,45.39,45.39,0,0,0-1,10.14q0,11.87,4.57,18.22a14.68,14.68,0,0,0,12.61,6.36,17.75,17.75,0,0,0,6.8-1.07,20.36,20.36,0,0,0,4.25-2.39l3.23-2.42a5.89,5.89,0,0,1,3.69-1.12,5.11,5.11,0,0,1,4.46,2.15l7.16,8.83a39,39,0,0,1-8,7.12,39.89,39.89,0,0,1-8.63,4.29,44.25,44.25,0,0,1-8.87,2.15,64.94,64.94,0,0,1-8.67.6,37.16,37.16,0,0,1-14.43-2.87,35.35,35.35,0,0,1-12.09-8.31,39.84,39.84,0,0,1-8.28-13.4,50.25,50.25,0,0,1-3.06-18.14,50.82,50.82,0,0,1,2.67-16.66,37.76,37.76,0,0,1,7.87-13.44,36.54,36.54,0,0,1,12.89-9,45,45,0,0,1,17.77-3.26,43.35,43.35,0,0,1,17,3.1,40.76,40.76,0,0,1,13.2,9.07Z"/><path class="cls-1" d="M707.43,382.2V263.13h24.66V307a40.2,40.2,0,0,1,9.66-6.17,30.27,30.27,0,0,1,12.45-2.34,28.92,28.92,0,0,1,12,2.34,24.74,24.74,0,0,1,8.79,6.53,28,28,0,0,1,5.41,9.94,41.2,41.2,0,0,1,1.83,12.53V382.2H757.54V329.79q0-6-2.78-9.43T746.57,317a17.12,17.12,0,0,0-7.64,1.75,29.68,29.68,0,0,0-6.84,4.69V382.2Z"/><path class="cls-1" d="M839,298.45A42.69,42.69,0,0,1,854,301a32.72,32.72,0,0,1,11.69,7.4,33.61,33.61,0,0,1,7.63,11.89,43.62,43.62,0,0,1,2.75,16,34.44,34.44,0,0,1-.24,4.53,7.11,7.11,0,0,1-.88,2.79,3.31,3.31,0,0,1-1.71,1.43,7.85,7.85,0,0,1-2.74.4H822.92q1.2,10.33,6.29,15T842.33,365a23.48,23.48,0,0,0,7.4-1,37.27,37.27,0,0,0,5.53-2.31c1.62-.85,3.1-1.61,4.45-2.3a9.24,9.24,0,0,1,4.26-1,5.1,5.1,0,0,1,4.45,2.15l7.16,8.83a36.52,36.52,0,0,1-8.23,7.12,42.53,42.53,0,0,1-9.07,4.29,48.74,48.74,0,0,1-9.31,2.15,69.29,69.29,0,0,1-8.86.6,46.15,46.15,0,0,1-16.27-2.83,37.29,37.29,0,0,1-13.28-8.39,39.41,39.41,0,0,1-9-13.84,51.71,51.71,0,0,1-3.3-19.25,43.63,43.63,0,0,1,2.82-15.67A38.05,38.05,0,0,1,822,301.71,42.15,42.15,0,0,1,839,298.45Zm.48,17q-7.08,0-11.06,4t-5.25,11.57H854a22,22,0,0,0-.76-5.73,13.89,13.89,0,0,0-2.47-5,12.46,12.46,0,0,0-4.49-3.54A15.4,15.4,0,0,0,839.47,315.47Z"/><path class="cls-1" d="M894.19,382.2V299.72h14.64a12.54,12.54,0,0,1,3.06.32,5.39,5.39,0,0,1,2.07,1,4.21,4.21,0,0,1,1.27,1.79,17.1,17.1,0,0,1,.76,2.71l1.35,7.71a40.3,40.3,0,0,1,10.18-11.05,20.68,20.68,0,0,1,12.33-4.06,14.24,14.24,0,0,1,9.07,2.7L945.74,319a3.58,3.58,0,0,1-1.28,2.35,4.29,4.29,0,0,1-2.54.67,16.79,16.79,0,0,1-3.18-.36,24.68,24.68,0,0,0-4.62-.35q-9.71,0-15.27,10.34V382.2Z"/></g></g></svg>